[Header]
FileType HTR
DataType HTRS
FileVersion 1
NumSegments 64
NumFrames 4
DataFrameRate 24
EulerRotationOrder ZYX
CalibrationUnits mm
RotationUnits Degrees
GlobalAxisofGravity Y
BoneLengthAxis Y
ScaleFactor 1.0
[SegmentNames&Hierarchy]
Hips	GLOBAL
Spine	Hips
Spine1	Spine
Spine2	Spine1
Neck	Spine2
Head	Neck
LeftEye	Head
RightEye	Head
LeftShoulder	Spine2
LeftArm	LeftShoulder
LeftForeArm	LeftArm
LeftHand	LeftForeArm
LeftHandThumb1	LeftHand
LeftHandThumb2	LeftHandThumb1
LeftHandThumb3	LeftHandThumb2
LeftHandThumb4	LeftHandThumb3
LeftHandIndex1	LeftHand
LeftHandIndex2	LeftHandIndex1
LeftHandIndex3	LeftHandIndex2
LeftHandIndex4	LeftHandIndex3
LeftHandMiddle1	LeftHand
LeftHandMiddle2	LeftHandMiddle1
LeftHandMiddle3	LeftHandMiddle2
LeftHandMiddle4	LeftHandMiddle3
LeftHandRing1	LeftHand
LeftHandRing2	LeftHandRing1
LeftHandRing3	LeftHandRing2
LeftHandRing4	LeftHandRing3
LeftHandPinky1	LeftHand
LeftHandPinky2	LeftHandPinky1
LeftHandPinky3	LeftHandPinky2
LeftHandPinky4	LeftHandPinky3
RightShoulder	Spine2
RightArm	RightShoulder
RightForeArm	RightArm
RightHand	RightForeArm
RightHandPinky1	RightHand
RightHandPinky2	RightHandPinky1
RightHandPinky3	RightHandPinky2
RightHandPinky4	RightHandPinky3
RightHandRing1	RightHand
RightHandRing2	RightHandRing1
RightHandRing3	RightHandRing2
RightHandRing4	RightHandRing3
RightHandMiddle1	RightHand
RightHandMiddle2	RightHandMiddle1
RightHandMiddle3	RightHandMiddle2
RightHandMiddle4	RightHandMiddle3
RightHandIndex1	RightHand
RightHandIndex2	RightHandIndex1
RightHandIndex3	RightHandIndex2
RightHandIndex4	RightHandIndex3
RightHandThumb1	RightHand
RightHandThumb2	RightHandThumb1
RightHandThumb3	RightHandThumb2
RightHandThumb4	RightHandThumb3
LeftUpLeg	Hips
LeftLeg	LeftUpLeg
LeftFoot	LeftLeg
LeftToeBase	LeftFoot
RightUpLeg	Hips
RightLeg	RightUpLeg
RightFoot	RightLeg
RightToeBase	RightFoot
[BasePosition]
Hips	0	0	0	0	0	0	1
Spine	0	0	0	0	0	0	1
Spine1	0	0	0	0	0	0	1
Spine2	0	0	0	0	0	0	1
Neck	0	0	0	0	0	0	1
Head	0	0	0	0	0	0	1
LeftEye	0	0	0	0	0	0	1
RightEye	0	0	0	0	0	0	1
LeftShoulder	0	0	0	0	0	0	1
LeftArm	0	0	0	0	0	0	1
LeftForeArm	0	0	0	0	0	0	1
LeftHand	0	0	0	0	0	0	1
LeftHandThumb1	0	0	0	0	0	0	1
LeftHandThumb2	0	0	0	0	0	0	1
LeftHandThumb3	0	0	0	0	0	0	1
LeftHandThumb4	0	0	0	0	0	0	1
LeftHandIndex1	0	0	0	0	0	0	1
LeftHandIndex2	0	0	0	0	0	0	1
LeftHandIndex3	0	0	0	0	0	0	1
LeftHandIndex4	0	0	0	0	0	0	1
LeftHandMiddle1	0	0	0	0	0	0	1
LeftHandMiddle2	0	0	0	0	0	0	1
LeftHandMiddle3	0	0	0	0	0	0	1
LeftHandMiddle4	0	0	0	0	0	0	1
LeftHandRing1	0	0	0	0	0	0	1
LeftHandRing2	0	0	0	0	0	0	1
LeftHandRing3	0	0	0	0	0	0	1
LeftHandRing4	0	0	0	0	0	0	1
LeftHandPinky1	0	0	0	0	0	0	1
LeftHandPinky2	0	0	0	0	0	0	1
LeftHandPinky3	0	0	0	0	0	0	1
LeftHandPinky4	0	0	0	0	0	0	1
RightShoulder	0	0	0	0	0	0	1
RightArm	0	0	0	0	0	0	1
RightForeArm	0	0	0	0	0	0	1
RightHand	0	0	0	0	0	0	1
RightHandPinky1	0	0	0	0	0	0	1
RightHandPinky2	0	0	0	0	0	0	1
RightHandPinky3	0	0	0	0	0	0	1
RightHandPinky4	0	0	0	0	0	0	1
RightHandRing1	0	0	0	0	0	0	1
RightHandRing2	0	0	0	0	0	0	1
RightHandRing3	0	0	0	0	0	0	1
RightHandRing4	0	0	0	0	0	0	1
RightHandMiddle1	0	0	0	0	0	0	1
RightHandMiddle2	0	0	0	0	0	0	1
RightHandMiddle3	0	0	0	0	0	0	1
RightHandMiddle4	0	0	0	0	0	0	1
RightHandIndex1	0	0	0	0	0	0	1
RightHandIndex2	0	0	0	0	0	0	1
RightHandIndex3	0	0	0	0	0	0	1
RightHandIndex4	0	0	0	0	0	0	1
RightHandThumb1	0	0	0	0	0	0	1
RightHandThumb2	0	0	0	0	0	0	1
RightHandThumb3	0	0	0	0	0	0	1
RightHandThumb4	0	0	0	0	0	0	1
LeftUpLeg	0	0	0	0	0	0	1
LeftLeg	0	0	0	0	0	0	1
LeftFoot	0	0	0	0	0	0	1
LeftToeBase	0	0	0	0	0	0	1
RightUpLeg	0	0	0	0	0	0	1
RightLeg	0	0	0	0	0	0	1
RightFoot	0	0	0	0	0	0	1
RightToeBase	0	0	0	0	0	0	1
[Hips]
139	-4.942079544	1033.671997	23.83105278	-3.908301592	-5.490766048	-2.981934309	1.0
140	-5.024778843	1033.520752	23.83236885	-3.97931695	-5.458908081	-2.990125418	1.0
141	-5.185966015	1033.415039	23.86537552	-4.045051098	-5.415062428	-3.00473094	1.0
142	-5.337916374	1033.35376	23.84786987	-4.085521698	-5.378461838	-3.012558222	1.0
[Spine]
139	0	101.8159943	1.315000057	3.943048239	1.921319604	3.108778	1.0
140	0	101.8159943	1.315000057	3.992952824	1.928952694	3.130001545	1.0
141	0	101.8159943	1.315000057	4.006972313	1.941185474	3.152050972	1.0
142	0	101.8159943	1.315000057	4.021447659	1.949235559	3.169887304	1.0
[Spine1]
139	0	100.8349991	-10.00800037	1.293833137	0.5365918279	1.660370708	1.0
140	0	100.8349991	-10.00800037	1.30757606	0.540626049	1.666563034	1.0
141	0	100.8349991	-10.00800037	1.309477448	0.5461200476	1.673495173	1.0
142	0	100.8349991	-10.00800037	1.311991334	0.5497309566	1.679157495	1.0
[Spine2]
139	0	91	-13.73399925	1.268961549	0.5592916608	1.66135776	1.0
140	0	91	-13.73399925	1.282752514	0.5633238554	1.66741097	1.0
141	0	91	-13.73399925	1.284709454	0.5687863827	1.674255848	1.0
142	0	91	-13.73399925	1.287264109	0.5723813176	1.679845452	1.0
[Neck]
139	0	166.7169952	-25.16200066	6.027792931	-0.2258891016	0.3059709966	1.0
140	0	166.7169952	-25.16200066	6.092185974	-0.2214823663	0.3013349771	1.0
141	0	166.7169952	-25.16200066	6.160676003	-0.2280772328	0.3016473055	1.0
142	0	166.7169952	-25.16200066	6.209373951	-0.2336091846	0.3010563254	1.0
[Head]
139	0	96.17900085	16.84999847	-8.515266418	0.9923656583	-0.2218787968	1.0
140	0	96.17900085	16.84999847	-8.460037231	1.022208452	-0.2488009632	1.0
141	0	96.17900085	16.84999847	-8.346412659	0.9979886413	-0.2395634651	1.0
142	0	96.17900085	16.84999847	-8.292998314	0.9728404284	-0.2258887738	1.0
[LeftEye]
139	30.6760006	64.09500122	92.83599854	0	0	0	1.0
140	30.6760006	64.09500122	92.83599854	0	0	0	1.0
141	30.6760006	64.09500122	92.83599854	0	0	0	1.0
142	30.6760006	64.09500122	92.83599854	0	0	0	1.0
[RightEye]
139	-30.6760006	64.09500122	92.83499908	0	0	0	1.0
140	-30.6760006	64.09500122	92.83499908	0	0	0	1.0
141	-30.6760006	64.09500122	92.83499908	0	0	0	1.0
142	-30.6760006	64.09500122	92.83499908	0	0	0	1.0
[LeftShoulder]
139	45.70400238	109.4599991	-26.28000069	4.976593971	-16.94293022	-13.53657436	1.0
140	45.70400238	109.4599991	-26.28000069	4.984252453	-16.98444176	-13.56151485	1.0
141	45.70400238	109.4599991	-26.28000069	4.984936714	-16.98710823	-13.56430721	1.0
142	45.70400238	109.4599991	-26.28000069	4.986702919	-16.99721336	-13.56981277	1.0
[LeftArm]
139	105.923996	-5.24600029	-22.32099915	19.96670723	-3.976473093	-70.95937347	1.0
140	105.923996	-5.24600029	-22.32099915	19.95746422	-3.985184431	-70.95960236	1.0
141	105.923996	-5.24600029	-22.32099915	19.93309784	-4.001326561	-70.97837067	1.0
142	105.923996	-5.24600029	-22.32099915	19.91371346	-4.020699024	-70.9883728	1.0
[LeftForeArm]
139	278.414978	-0.0009999999311	0	-5.70284783e-06	-1.757433891	-0.000207912075	1.0
140	278.414978	-0.0009999999311	0	-4.51739561e-06	-1.777012825	-0.000218857298	1.0
141	278.414978	-0.0009999999311	0	-4.200092917e-06	-1.795231342	-0.0002056747471	1.0
142	278.414978	-0.0009999999311	0	-4.213355624e-06	-1.808827758	-0.0001943797106	1.0
[LeftHand]
139	283.2879944	0	0	-33.19813538	-4.857160091	-3.601483583	1.0
140	283.2879944	0	0	-33.27654266	-4.908522129	-3.507878065	1.0
141	283.2879944	0	0	-33.32689667	-4.91911602	-3.479714394	1.0
142	283.2879944	0	0	-33.36716843	-4.92702961	-3.466118336	1.0
[LeftHandThumb1]
139	24.6609993	-15.75	26.8239994	-0.4889889657	2.201390743	4.818541527	1.0
140	24.6609993	-15.75	26.8239994	-0.4889889657	2.201390743	4.818541527	1.0
141	24.6609993	-15.75	26.8239994	-0.4889889657	2.201390743	4.818541527	1.0
142	24.6609993	-15.75	26.8239994	-0.4889889657	2.201390743	4.818541527	1.0
[LeftHandThumb2]
139	32.29800034	-18.64699936	18.64699936	19.88581276	19.96446037	23.26738167	1.0
140	32.29800034	-18.64699936	18.64699936	19.88581276	19.96446037	23.26738167	1.0
141	32.29800034	-18.64699936	18.64699936	19.88581276	19.96446037	23.26738167	1.0
142	32.29800034	-18.64699936	18.64699936	19.88581276	19.96446037	23.26738167	1.0
[LeftHandThumb3]
139	26.52600098	-15.31499958	15.31499958	-13.14535904	5.551738262	7.967928886	1.0
140	26.52600098	-15.31499958	15.31499958	-13.14535904	5.551738262	7.967928886	1.0
141	26.52600098	-15.31499958	15.31499958	-13.14535904	5.551738262	7.967928886	1.0
142	26.52600098	-15.31499958	15.31499958	-13.14535904	5.551738262	7.967928886	1.0
[LeftHandThumb4]
139	19.54599953	-11.28499985	11.28499985	0	0	0	1.0
140	19.54599953	-11.28499985	11.28499985	0	0	0	1.0
141	19.54599953	-11.28499985	11.28499985	0	0	0	1.0
142	19.54599953	-11.28499985	11.28499985	0	0	0	1.0
[LeftHandIndex1]
139	91.09299469	-5.170999527	22.60099792	0.1480516791	-0.9618676901	-7.594518185	1.0
140	91.09299469	-5.170999527	22.60099792	0.1480516791	-0.9618676901	-7.594518185	1.0
141	91.09299469	-5.170999527	22.60099792	0.1480516791	-0.9618676901	-7.594518185	1.0
142	91.09299469	-5.170999527	22.60099792	0.1480516791	-0.9618676901	-7.594518185	1.0
[LeftHandIndex2]
139	36.76399994	0	0	-0.2667043209	1.745171905	-17.37646866	1.0
140	36.76399994	0	0	-0.2667043209	1.745171905	-17.37646866	1.0
141	36.76399994	0	0	-0.2667043209	1.745171905	-17.37646866	1.0
142	36.76399994	0	0	-0.2667043209	1.745171905	-17.37646866	1.0
[LeftHandIndex3]
139	28.83100128	0	0	-0.05742863193	0.817338407	-8.038370132	1.0
140	28.83100128	0	0	-0.05742863193	0.817338407	-8.038370132	1.0
141	28.83100128	0	0	-0.05742863193	0.817338407	-8.038370132	1.0
142	28.83100128	0	0	-0.05742863193	0.817338407	-8.038370132	1.0
[LeftHandIndex4]
139	23.92700005	0	0	0	0	0	1.0
140	23.92700005	0	0	0	0	0	1.0
141	23.92700005	0	0	0	0	0	1.0
142	23.92700005	0	0	0	0	0	1.0
[LeftHandMiddle1]
139	95.33399963	0	0	-0.7942916155	2.538622379	-15.71737862	1.0
140	95.33399963	0	0	-0.7942916155	2.538622379	-15.71737862	1.0
141	95.33399963	0	0	-0.7942916155	2.538622379	-15.71737862	1.0
142	95.33399963	0	0	-0.7942916155	2.538622379	-15.71737862	1.0
[LeftHandMiddle2]
139	36.98199844	0	0	-0.267610997	1.748071074	-17.40625954	1.0
140	36.98199844	0	0	-0.267610997	1.748071074	-17.40625954	1.0
141	36.98199844	0	0	-0.267610997	1.748071074	-17.40625954	1.0
142	36.98199844	0	0	-0.267610997	1.748071074	-17.40625954	1.0
[LeftHandMiddle3]
139	29.50900078	0	0	-0.2992140949	1.84580946	-18.41413307	1.0
140	29.50900078	0	0	-0.2992140949	1.84580946	-18.41413307	1.0
141	29.50900078	0	0	-0.2992140949	1.84580946	-18.41413307	1.0
142	29.50900078	0	0	-0.2992140949	1.84580946	-18.41413307	1.0
[LeftHandMiddle4]
139	28.3390007	0	0	0	0	0	1.0
140	28.3390007	0	0	0	0	0	1.0
141	28.3390007	0	0	0	0	0	1.0
142	28.3390007	0	0	0	0	0	1.0
[LeftHandRing1]
139	91.04499817	-0.4390000105	-18.65100098	-1.184956431	3.436642885	-21.16632462	1.0
140	91.04499817	-0.4390000105	-18.65100098	-1.184956431	3.436642885	-21.16632462	1.0
141	91.04499817	-0.4390000105	-18.65100098	-1.184956431	3.436642885	-21.16632462	1.0
142	91.04499817	-0.4390000105	-18.65100098	-1.184956431	3.436642885	-21.16632462	1.0
[LeftHandRing2]
139	31.54000092	0	0	-0.3849357069	2.085560799	-20.91281319	1.0
140	31.54000092	0	0	-0.3849357069	2.085560799	-20.91281319	1.0
141	31.54000092	0	0	-0.3849357069	2.085560799	-20.91281319	1.0
142	31.54000092	0	0	-0.3849357069	2.085560799	-20.91281319	1.0
[LeftHandRing3]
139	29.37700081	0	0	-0.2818065584	1.792707562	-17.86576271	1.0
140	29.37700081	0	0	-0.2818065584	1.792707562	-17.86576271	1.0
141	29.37700081	0	0	-0.2818065584	1.792707562	-17.86576271	1.0
142	29.37700081	0	0	-0.2818065584	1.792707562	-17.86576271	1.0
[LeftHandRing4]
139	26.47500038	0	0	0	0	0	1.0
140	26.47500038	0	0	0	0	0	1.0
141	26.47500038	0	0	0	0	0	1.0
142	26.47500038	0	0	0	0	0	1.0
[LeftHandPinky1]
139	80.77799988	-4.887000084	-38.06099701	-1.708467126	5.355370045	-27.1653862	1.0
140	80.77799988	-4.887000084	-38.06099701	-1.708467126	5.355370045	-27.1653862	1.0
141	80.77799988	-4.887000084	-38.06099701	-1.708467126	5.355370045	-27.1653862	1.0
142	80.77799988	-4.887000084	-38.06099701	-1.708467126	5.355370045	-27.1653862	1.0
[LeftHandPinky2]
139	36	0	0	-0.2676221728	1.748113751	-17.40663528	1.0
140	36	0	0	-0.2676221728	1.748113751	-17.40663528	1.0
141	36	0	0	-0.2676221728	1.748113751	-17.40663528	1.0
142	36	0	0	-0.2676221728	1.748113751	-17.40663528	1.0
[LeftHandPinky3]
139	21.14200211	0	0	-0.2408525199	1.660349369	-16.50663185	1.0
140	21.14200211	0	0	-0.2408525199	1.660349369	-16.50663185	1.0
141	21.14200211	0	0	-0.2408525199	1.660349369	-16.50663185	1.0
142	21.14200211	0	0	-0.2408525199	1.660349369	-16.50663185	1.0
[LeftHandPinky4]
139	19.75699997	0	0	0	0	0	1.0
140	19.75699997	0	0	0	0	0	1.0
141	19.75699997	0	0	0	0	0	1.0
142	19.75699997	0	0	0	0	0	1.0
[RightShoulder]
139	-45.70000076	109.4620056	-26.28000069	5.335257053	15.0206356	16.16059303	1.0
140	-45.70000076	109.4620056	-26.28000069	5.338141441	15.07649326	16.14748001	1.0
141	-45.70000076	109.4620056	-26.28000069	5.337675095	15.10427856	16.1298027	1.0
142	-45.70000076	109.4620056	-26.28000069	5.335878372	15.12850285	16.10647011	1.0
[RightArm]
139	-105.9280014	-5.248000145	-22.32099915	29.88358688	1.735761881	62.33491516	1.0
140	-105.9280014	-5.248000145	-22.32099915	29.87820625	1.757668972	62.27616501	1.0
141	-105.9280014	-5.248000145	-22.32099915	29.83364677	1.745286226	62.24748993	1.0
142	-105.9280014	-5.248000145	-22.32099915	29.79332161	1.741036177	62.23692322	1.0
[RightForeArm]
139	-278.414978	0	0	-3.980202109e-06	6.731580734	1.037063521e-05	1.0
140	-278.414978	0	0	-6.704821317e-06	6.74326086	6.709055469e-06	1.0
141	-278.414978	0	0	-6.972240953e-06	6.75551796	9.160321497e-06	1.0
142	-278.414978	0	0	-6.202968962e-06	6.761850834	1.209752463e-05	1.0
[RightHand]
139	-283.2879944	0	0.0009999999311	-20.38950539	1.620697618	5.808372974	1.0
140	-283.2879944	0	0.0009999999311	-20.42483902	1.614840865	5.833452225	1.0
141	-283.2879944	0	0.0009999999311	-20.45103264	1.60620892	5.851581573	1.0
142	-283.2879944	0	0.0009999999311	-20.47239876	1.604562044	5.858010292	1.0
[RightHandPinky1]
139	-80.76699829	-4.885000229	-38.06000137	-1.507175922	-4.696118355	26.50587463	1.0
140	-80.76699829	-4.885000229	-38.06000137	-1.507175922	-4.696118355	26.50587463	1.0
141	-80.76699829	-4.885000229	-38.06000137	-1.507175922	-4.696118355	26.50587463	1.0
142	-80.76699829	-4.885000229	-38.06000137	-1.507175922	-4.696118355	26.50587463	1.0
[RightHandPinky2]
139	-36	0	0.0009999999311	-0.2127676606	-1.388874292	17.43785858	1.0
140	-36	0	0.0009999999311	-0.2127676606	-1.388874292	17.43785858	1.0
141	-36	0	0.0009999999311	-0.2127676606	-1.388874292	17.43785858	1.0
142	-36	0	0.0009999999311	-0.2127676606	-1.388874292	17.43785858	1.0
[RightHandPinky3]
139	-21.14200211	0	0	-0.1919144988	-1.32059598	16.53641129	1.0
140	-21.14200211	0	0	-0.1919144988	-1.32059598	16.53641129	1.0
141	-21.14200211	0	0	-0.1919144988	-1.32059598	16.53641129	1.0
142	-21.14200211	0	0	-0.1919144988	-1.32059598	16.53641129	1.0
[RightHandPinky4]
139	-19.75699997	0	0	0	0	0	1.0
140	-19.75699997	0	0	0	0	0	1.0
141	-19.75699997	0	0	0	0	0	1.0
142	-19.75699997	0	0	0	0	0	1.0
[RightHandRing1]
139	-91.03599548	-0.4390000105	-18.65100098	-1.045235753	-2.883111477	20.47788429	1.0
140	-91.03599548	-0.4390000105	-18.65100098	-1.045235753	-2.883111477	20.47788429	1.0
141	-91.03599548	-0.4390000105	-18.65100098	-1.045235753	-2.883111477	20.47788429	1.0
142	-91.03599548	-0.4390000105	-18.65100098	-1.045235753	-2.883111477	20.47788429	1.0
[RightHandRing2]
139	-31.54000092	0	0	-0.3066971898	-1.658752441	20.94926834	1.0
140	-31.54000092	0	0	-0.3066971898	-1.658752441	20.94926834	1.0
141	-31.54000092	0	0	-0.3066971898	-1.658752441	20.94926834	1.0
142	-31.54000092	0	0	-0.3066971898	-1.658752441	20.94926834	1.0
[RightHandRing3]
139	-29.37700081	0	0	-0.2245407403	-1.425854325	17.89771652	1.0
140	-29.37700081	0	0	-0.2245407403	-1.425854325	17.89771652	1.0
141	-29.37700081	0	0	-0.2245407403	-1.425854325	17.89771652	1.0
142	-29.37700081	0	0	-0.2245407403	-1.425854325	17.89771652	1.0
[RightHandRing4]
139	-26.47500038	0	0	0	0	0	1.0
140	-26.47500038	0	0	0	0	0	1.0
141	-26.47500038	0	0	0	0	0	1.0
142	-26.47500038	0	0	0	0	0	1.0
[RightHandMiddle1]
139	-95.32500458	0	0	-0.7017197609	-2.087752104	15.0152874	1.0
140	-95.32500458	0	0	-0.7017197609	-2.087752104	15.0152874	1.0
141	-95.32500458	0	0	-0.7017197609	-2.087752104	15.0152874	1.0
142	-95.32500458	0	0	-0.7017197609	-2.087752104	15.0152874	1.0
[RightHandMiddle2]
139	-36.98199844	0	0	-0.213228479	-1.390354872	17.43750381	1.0
140	-36.98199844	0	0	-0.213228479	-1.390354872	17.43750381	1.0
141	-36.98199844	0	0	-0.213228479	-1.390354872	17.43750381	1.0
142	-36.98199844	0	0	-0.213228479	-1.390354872	17.43750381	1.0
[RightHandMiddle3]
139	-29.50900078	0	0	-0.2384106964	-1.470119596	18.44692802	1.0
140	-29.50900078	0	0	-0.2384106964	-1.470119596	18.44692802	1.0
141	-29.50900078	0	0	-0.2384106964	-1.470119596	18.44692802	1.0
142	-29.50900078	0	0	-0.2384106964	-1.470119596	18.44692802	1.0
[RightHandMiddle4]
139	-28.3390007	0	0.0009999999311	0	0	0	1.0
140	-28.3390007	0	0.0009999999311	0	0	0	1.0
141	-28.3390007	0	0.0009999999311	0	0	0	1.0
142	-28.3390007	0	0.0009999999311	0	0	0	1.0
[RightHandIndex1]
139	-91.08300018	-5.167999744	22.60099792	0.1884763837	1.25192976	6.825599194	1.0
140	-91.08300018	-5.167999744	22.60099792	0.1884763837	1.25192976	6.825599194	1.0
141	-91.08300018	-5.167999744	22.60099792	0.1884763837	1.25192976	6.825599194	1.0
142	-91.08300018	-5.167999744	22.60099792	0.1884763837	1.25192976	6.825599194	1.0
[RightHandIndex2]
139	-36.76399994	0	0	-0.2125098109	-1.388050556	17.40767097	1.0
140	-36.76399994	0	0	-0.2125098109	-1.388050556	17.40767097	1.0
141	-36.76399994	0	0	-0.2125098109	-1.388050556	17.40767097	1.0
142	-36.76399994	0	0	-0.2125098109	-1.388050556	17.40767097	1.0
[RightHandIndex3]
139	-28.83100128	0	0	-0.04576345533	-0.650116384	8.053516388	1.0
140	-28.83100128	0	0	-0.04576345533	-0.650116384	8.053516388	1.0
141	-28.83100128	0	0	-0.04576345533	-0.650116384	8.053516388	1.0
142	-28.83100128	0	0	-0.04576345533	-0.650116384	8.053516388	1.0
[RightHandIndex4]
139	-23.92700005	0	0	0	0	0	1.0
140	-23.92700005	0	0	0	0	0	1.0
141	-23.92700005	0	0	0	0	0	1.0
142	-23.92700005	0	0	0	0	0	1.0
[RightHandThumb1]
139	-24.64799881	-15.72700024	26.82600021	-1.658462524	-0.2891407609	-4.221328735	1.0
140	-24.64799881	-15.72700024	26.82600021	-1.658462524	-0.2891407609	-4.221328735	1.0
141	-24.64799881	-15.72700024	26.82600021	-1.658462524	-0.2891407609	-4.221328735	1.0
142	-24.64799881	-15.72700024	26.82600021	-1.658462524	-0.2891407609	-4.221328735	1.0
[RightHandThumb2]
139	-32.29800034	-18.64699936	18.64699936	22.25259209	-23.88967514	-24.282444	1.0
140	-32.29800034	-18.64699936	18.64699936	22.25259209	-23.88967514	-24.282444	1.0
141	-32.29800034	-18.64699936	18.64699936	22.25259209	-23.88967514	-24.282444	1.0
142	-32.29800034	-18.64699936	18.64699936	22.25259209	-23.88967514	-24.282444	1.0
[RightHandThumb3]
139	-26.52600098	-15.31399918	15.31399918	-14.47830296	-6.743862152	-11.36570263	1.0
140	-26.52600098	-15.31399918	15.31399918	-14.47830296	-6.743862152	-11.36570263	1.0
141	-26.52600098	-15.31399918	15.31399918	-14.47830296	-6.743862152	-11.36570263	1.0
142	-26.52600098	-15.31399918	15.31399918	-14.47830296	-6.743862152	-11.36570263	1.0
[RightHandThumb4]
139	-19.54599953	-11.28499985	11.28499985	0	0	0	1.0
140	-19.54599953	-11.28499985	11.28499985	0	0	0	1.0
141	-19.54599953	-11.28499985	11.28499985	0	0	0	1.0
142	-19.54599953	-11.28499985	11.28499985	0	0	0	1.0
[LeftUpLeg]
139	82.07800293	-67.51699829	-15.99599934	-7.206970692	16.64748573	7.899780273	1.0
140	82.07800293	-67.51699829	-15.99599934	-7.211694717	16.70527649	7.940939903	1.0
141	82.07800293	-67.51699829	-15.99599934	-7.200947762	16.74625397	7.981443882	1.0
142	82.07800293	-67.51699829	-15.99599934	-7.192278385	16.76847839	8.004014015	1.0
[LeftLeg]
139	0	-443.7049866	2.845999956	12.3070755	0.6100592613	4.456779003	1.0
140	0	-443.7049866	2.845999956	12.45622253	0.5043752193	4.418514252	1.0
141	0	-443.7049866	2.845999956	12.55881786	0.4007183015	4.397745132	1.0
142	0	-443.7049866	2.845999956	12.60672283	0.3301143944	4.387999535	1.0
[LeftFoot]
139	0	-444.2789917	-29.8219986	0.796548903	0.6884860992	-7.352582932	1.0
140	0	-444.2789917	-29.8219986	0.7213020325	0.6850258708	-7.338253021	1.0
141	0	-444.2789917	-29.8219986	0.6673971415	0.6829208136	-7.329669476	1.0
142	0	-444.2789917	-29.8219986	0.64443326	0.6821717024	-7.326480865	1.0
[LeftToeBase]
139	0	-87.28699493	107.1060028	-4.935679436	1.663927264e-06	2.732452913e-06	1.0
140	0	-87.28699493	107.1060028	-4.950401306	-5.848171895e-06	-5.177569619e-06	1.0
141	0	-87.28699493	107.1060028	-4.951322556	8.064421309e-06	-4.049592462e-06	1.0
142	0	-87.28699493	107.1060028	-4.948635578	1.985783092e-05	-1.903693601e-06	1.0
[RightUpLeg]
139	-82.07800293	-67.51699829	-15.99599934	0.8055873513	-10.65875435	3.131391525	1.0
140	-82.07800293	-67.51699829	-15.99599934	0.8036414981	-10.66809845	3.132467031	1.0
141	-82.07800293	-67.51699829	-15.99599934	0.8334765434	-10.66087723	3.14909935	1.0
142	-82.07800293	-67.51699829	-15.99599934	0.8507990837	-10.65540886	3.162757397	1.0
[RightLeg]
139	0	-443.7049866	2.861999989	8.706267357	-9.194027901	-4.753931999	1.0
140	0	-443.7049866	2.861999989	8.87416172	-9.180574417	-4.783154964	1.0
141	0	-443.7049866	2.861999989	8.972878456	-9.172119141	-4.801861286	1.0
142	0	-443.7049866	2.861999989	9.031801224	-9.167041779	-4.812623024	1.0
[RightFoot]
139	0	-444.2770081	-29.83799934	-4.84259367	-1.08173883	3.349101305	1.0
140	0	-444.2770081	-29.83799934	-4.936197758	-1.097078562	3.364445686	1.0
141	0	-444.2770081	-29.83799934	-5.001286507	-1.14545536	3.371016026	1.0
142	0	-444.2770081	-29.83799934	-5.040732384	-1.187842011	3.371262074	1.0
[RightToeBase]
139	0	-87.28699493	107.1060028	-7.052156448	-4.531987543e-06	-1.431759074e-06	1.0
140	0	-87.28699493	107.1060028	-7.078066826	3.359595212e-05	-2.728504114e-06	1.0
141	0	-87.28699493	107.1060028	-7.09554863	2.610967567e-05	-2.499161383e-06	1.0
142	0	-87.28699493	107.1060028	-7.107091427	1.374727617e-05	-2.021597538e-06	1.0
[EndOfFile]
